<?xml version="1.0" encoding="UTF-8" standalone="no"?>
<!-- Created with Inkscape (http://www.inkscape.org/) -->

<svg
   xmlns:dc="http://purl.org/dc/elements/1.1/"
   xmlns:cc="http://creativecommons.org/ns#"
   xmlns:rdf="http://www.w3.org/1999/02/22-rdf-syntax-ns#"
   xmlns:svg="http://www.w3.org/2000/svg"
   xmlns="http://www.w3.org/2000/svg"
   xmlns:sodipodi="http://sodipodi.sourceforge.net/DTD/sodipodi-0.dtd"
   xmlns:inkscape="http://www.inkscape.org/namespaces/inkscape"
   width="93.296127mm"
   height="93.296127mm"
   viewBox="0 0 93.296127 93.296127"
   version="1.1"
   id="svg8"
   inkscape:version="0.92.3 (unknown)"
   sodipodi:docname="icon.svg">
  <defs
     id="defs2" />
  <sodipodi:namedview
     id="base"
     pagecolor="#ffffff"
     bordercolor="#666666"
     borderopacity="1.0"
     inkscape:pageopacity="0.0"
     inkscape:pageshadow="2"
     inkscape:zoom="0.98994949"
     inkscape:cx="321.16698"
     inkscape:cy="226.58664"
     inkscape:document-units="mm"
     inkscape:current-layer="layer1"
     showgrid="false"
     inkscape:window-width="1600"
     inkscape:window-height="833"
     inkscape:window-x="0"
     inkscape:window-y="0"
     inkscape:window-maximized="1"
     fit-margin-top="0"
     fit-margin-left="0"
     fit-margin-right="0"
     fit-margin-bottom="0" />
  <metadata
     id="metadata5">
    <rdf:RDF>
      <cc:Work
         rdf:about="">
        <dc:format>image/svg+xml</dc:format>
        <dc:type
           rdf:resource="http://purl.org/dc/dcmitype/StillImage" />
        <dc:title></dc:title>
      </cc:Work>
    </rdf:RDF>
  </metadata>
  <g
     inkscape:label="Layer 1"
     inkscape:groupmode="layer"
     id="layer1"
     transform="translate(-22.041426,-32.214491)">
    <g
       id="g4554"
       inkscape:export-xdpi="132"
       inkscape:export-ydpi="132">
      <circle
         r="45.603065"
         style="fill:#ffffff;fill-opacity:1;stroke:#ff6600;stroke-width:2.08999991;stroke-miterlimit:4;stroke-dasharray:none;stroke-opacity:1"
         cy="78.862556"
         cx="68.689491"
         id="path3724" />
      <path
         inkscape:connector-curvature="0"
         id="path3726"
         d="m 63.479426,94.213815 c -1.292623,-0.54492 -2.408983,-1.62406 -2.832545,-2.73811 l -0.133402,-0.35087 h -1.98304 c -2.180794,0 -2.679334,-0.11785 -3.177459,-0.75111 -0.292009,-0.37123 -0.295327,-0.43801 -0.295327,-5.94239 v -5.56694 h -6.47755 c -7.138531,0 -7.058394,0.009 -7.498581,-0.84223 -0.327957,-0.63419 -0.197642,-1.66559 0.26948,-2.13284 l 0.3624,-0.36249 6.638069,-0.0681 6.638068,-0.0681 0.03813,-1.73689 0.03813,-1.7369 -4.737959,-5.1e-4 c -4.511907,-5.1e-4 -4.759475,-0.0136 -5.188896,-0.27544 -1.313221,-0.80065 -0.903397,-2.92662 0.612451,-3.1771 0.285791,-0.0472 2.496615,-0.0865 4.912942,-0.0874 l 4.393323,-0.002 v -2.04546 -2.04541 l 0.466307,-0.50885 0.466308,-0.50885 15.233866,-0.0348 c 14.298945,-0.0327 15.262403,-0.0201 15.699093,0.20435 0.805341,0.41396 0.965142,0.92122 0.965142,3.06372 v 1.87525 l 3.439734,10e-4 c 1.891852,4.1e-4 3.658843,0.0616 3.926644,0.13602 0.267802,0.0744 0.622421,0.27951 0.788046,0.4558 0.165624,0.1763 1.12658,2.38303 2.13546,4.90385 l 1.83433,4.58324 v 5.77182 c 0,5.71454 -0.003,5.77554 -0.295331,6.14726 -0.497332,0.63225 -0.997676,0.75111 -3.161938,0.75111 h -1.967514 l -0.312837,0.64708 c -0.426244,0.88165 -1.461485,1.88261 -2.403885,2.32428 -0.684808,0.32095 -0.949721,0.36621 -2.143641,0.36621 -1.217142,0 -1.445251,-0.0407 -2.14116,-0.38249 -0.978219,-0.48037 -1.890524,-1.35866 -2.347032,-2.25953 l -0.352457,-0.69555 h -7.35167 -7.351668 l -0.352462,0.69555 c -0.455834,0.89954 -1.369194,1.77971 -2.339402,2.25439 -0.634659,0.31051 -0.989758,0.38512 -2.004935,0.42124 -1.05692,0.0376 -1.344503,-0.003 -2.007225,-0.2822 z m 2.563979,-3.31169 c 1.168507,-0.5545 1.152283,-2.27723 -0.02672,-2.83671 -1.067241,-0.50644 -2.240504,0.214 -2.240504,1.37578 0,0.72011 0.308371,1.24358 0.87899,1.49213 0.552817,0.2408 0.828064,0.23461 1.388231,-0.0312 z m 24.341696,0.037 c 0.596584,-0.24927 0.908948,-0.76402 0.908948,-1.49788 0,-1.14211 -1.173212,-1.88224 -2.206431,-1.39194 -1.188308,0.56388 -1.237942,2.27824 -0.08245,2.8477 0.553242,0.27265 0.809484,0.28047 1.379929,0.0421 z m -29.36195,-4.1047 c 0.516235,-0.85308 1.326911,-1.56463 2.287091,-2.00744 0.5552,-0.25604 0.904174,-0.30912 2.032554,-0.30912 1.217141,0 1.445251,0.0407 2.14116,0.38249 0.925372,0.45441 1.882137,1.34565 2.278358,2.1223 l 0.285853,0.56033 h 7.149153 7.149149 V 77.161555 66.740185 H 71.404901 58.463329 v 0.81737 0.81736 l 6.028048,0.008 c 4.297763,0.005 6.163553,0.0544 6.500126,0.17029 0.935516,0.32221 1.349763,1.49073 0.879667,2.48139 -0.417722,0.88028 -0.436278,0.88254 -7.268225,0.88254 H 58.45519 l 0.03813,1.73689 0.03813,1.7369 2.792654,0.0681 c 1.82441,0.0445 2.89277,0.12553 3.081409,0.23369 0.451009,0.25862 0.77617,1.07381 0.688636,1.72644 -0.05527,0.41203 -0.202718,0.67686 -0.5583,1.00273 l -0.483203,0.44282 h -2.794661 -2.794656 v 4.35927 4.35926 l 1.05576,-0.004 1.055759,-0.004 0.448303,-0.74083 z m 35.583753,-2.72524 v -3.47378 h -2.799421 c -3.032535,0 -3.304332,-0.0538 -3.863676,-0.7649 -0.263095,-0.33447 -0.284483,-0.53537 -0.284483,-2.67219 0,-3.34781 0.135124,-3.51049 2.915844,-3.51049 0.943728,0 1.715874,-0.0436 1.715874,-0.0968 0,-0.0532 -0.137615,-0.45171 -0.305819,-0.88548 l -0.305815,-0.78867 h -2.895517 -2.895522 v 6.40526 6.40527 l 0.374627,-0.10477 c 0.206043,-0.0576 0.926341,-0.10312 1.600666,-0.10112 0.974734,0.003 1.363438,0.0663 1.896327,0.30911 0.95625,0.4358 1.769292,1.14813 2.287091,2.0038 l 0.448306,0.74083 1.055759,0.004 1.055759,0.004 z m -58.525778,1.44271 c -0.697126,-0.4251 -0.919299,-1.41759 -0.51028,-2.27954 0.417819,-0.88048 0.291651,-0.86606 7.569524,-0.8655 6.359202,5.2e-4 6.594833,0.01 7.030656,0.27544 0.951045,0.57984 1.061523,1.84886 0.233078,2.67731 l -0.452428,0.45243 -6.722805,-5.2e-4 c -6.367226,-5.1e-4 -6.74528,-0.0142 -7.147745,-0.25963 z"
         style="fill:#ff6600;stroke-width:0.13622706" />
    </g>
  </g>
</svg>
